<mxfile host="app.diagrams.net" modified="2024-03-03T20:49:27.685Z" agent="Mozilla/5.0 (Windows NT 10.0; Win64; x64) AppleWebKit/537.36 (KHTML, like Gecko) Chrome/122.0.0.0 Safari/537.36" etag="bSkNrCBll1htiThpQbI6" version="23.1.5" type="google">
  <diagram name="Page-1" id="4FzFtsWJXslm1pbTg9Sd">
    <mxGraphModel grid="1" page="1" gridSize="10" guides="1" tooltips="1" connect="1" arrows="1" fold="1" pageScale="1" pageWidth="850" pageHeight="1100" math="0" shadow="0">
      <root>
        <mxCell id="0" />
        <mxCell id="1" parent="0" />
        <mxCell id="IHKW28fJprt5DtpidUdv-10" style="edgeStyle=orthogonalEdgeStyle;rounded=0;orthogonalLoop=1;jettySize=auto;html=1;exitX=1;exitY=0.5;exitDx=0;exitDy=0;entryX=0.5;entryY=1;entryDx=0;entryDy=0;align=left;" edge="1" parent="1" source="2SYqB3RUra1mMBqpHuPi-1" target="2SYqB3RUra1mMBqpHuPi-6">
          <mxGeometry relative="1" as="geometry" />
        </mxCell>
        <mxCell id="IHKW28fJprt5DtpidUdv-16" style="edgeStyle=orthogonalEdgeStyle;rounded=0;orthogonalLoop=1;jettySize=auto;html=1;exitX=1;exitY=0.75;exitDx=0;exitDy=0;entryX=0.5;entryY=0;entryDx=0;entryDy=0;align=left;" edge="1" parent="1" source="2SYqB3RUra1mMBqpHuPi-1" target="2SYqB3RUra1mMBqpHuPi-9">
          <mxGeometry relative="1" as="geometry" />
        </mxCell>
        <mxCell id="IHKW28fJprt5DtpidUdv-22" style="edgeStyle=orthogonalEdgeStyle;rounded=0;orthogonalLoop=1;jettySize=auto;html=1;exitX=0;exitY=0.5;exitDx=0;exitDy=0;entryX=0.5;entryY=1;entryDx=0;entryDy=0;align=left;" edge="1" parent="1" source="2SYqB3RUra1mMBqpHuPi-1" target="2SYqB3RUra1mMBqpHuPi-5">
          <mxGeometry relative="1" as="geometry" />
        </mxCell>
        <mxCell id="IHKW28fJprt5DtpidUdv-27" style="edgeStyle=orthogonalEdgeStyle;rounded=0;orthogonalLoop=1;jettySize=auto;html=1;exitX=0;exitY=0.75;exitDx=0;exitDy=0;entryX=0.5;entryY=0;entryDx=0;entryDy=0;align=left;" edge="1" parent="1" source="2SYqB3RUra1mMBqpHuPi-1" target="IHKW28fJprt5DtpidUdv-1">
          <mxGeometry relative="1" as="geometry" />
        </mxCell>
        <mxCell id="2SYqB3RUra1mMBqpHuPi-1" value="&lt;ul style=&quot;font-size: 16px;&quot;&gt;&lt;li&gt;email&lt;/li&gt;&lt;li&gt;phone_numbers&lt;/li&gt;&lt;li style=&quot;&quot;&gt;street_id (FK)&lt;/li&gt;&lt;/ul&gt;" style="rounded=1;whiteSpace=wrap;html=1;align=left;" vertex="1" parent="1">
          <mxGeometry x="320" y="280" width="140" height="120" as="geometry" />
        </mxCell>
        <mxCell id="2SYqB3RUra1mMBqpHuPi-2" value="&lt;b&gt;&lt;font style=&quot;font-size: 18px;&quot;&gt;User&lt;/font&gt;&lt;/b&gt;" style="text;html=1;align=left;verticalAlign=middle;whiteSpace=wrap;rounded=0;" vertex="1" parent="1">
          <mxGeometry x="360" y="420" width="60" height="30" as="geometry" />
        </mxCell>
        <mxCell id="2SYqB3RUra1mMBqpHuPi-4" value="&lt;br&gt;-&amp;nbsp;&lt;div&gt;&lt;br&gt;&lt;/div&gt;" style="text;html=1;align=left;verticalAlign=middle;whiteSpace=wrap;rounded=0;" vertex="1" parent="1">
          <mxGeometry x="90" y="90" width="60" height="30" as="geometry" />
        </mxCell>
        <mxCell id="2SYqB3RUra1mMBqpHuPi-5" value="&lt;ul style=&quot;font-size: 16px;&quot;&gt;&lt;li&gt;street_id&lt;/li&gt;&lt;li&gt;street_name&lt;/li&gt;&lt;/ul&gt;" style="rounded=1;whiteSpace=wrap;html=1;align=left;" vertex="1" parent="1">
          <mxGeometry x="60" y="160" width="140" height="120" as="geometry" />
        </mxCell>
        <mxCell id="IHKW28fJprt5DtpidUdv-30" style="edgeStyle=orthogonalEdgeStyle;rounded=0;orthogonalLoop=1;jettySize=auto;html=1;exitX=1;exitY=0.5;exitDx=0;exitDy=0;entryX=1;entryY=0.5;entryDx=0;entryDy=0;align=left;" edge="1" parent="1" source="2SYqB3RUra1mMBqpHuPi-6" target="2SYqB3RUra1mMBqpHuPi-9">
          <mxGeometry relative="1" as="geometry" />
        </mxCell>
        <mxCell id="2SYqB3RUra1mMBqpHuPi-6" value="&lt;ul style=&quot;font-size: 16px;&quot;&gt;&lt;li&gt;&lt;span style=&quot;background-color: initial;&quot;&gt;user_id (FK)&lt;/span&gt;&lt;/li&gt;&lt;li&gt;&lt;span style=&quot;background-color: initial;&quot;&gt;street_id (FK)&lt;/span&gt;&lt;br&gt;&lt;/li&gt;&lt;li&gt;content&lt;/li&gt;&lt;/ul&gt;" style="rounded=1;whiteSpace=wrap;html=1;align=left;" vertex="1" parent="1">
          <mxGeometry x="580" y="160" width="140" height="120" as="geometry" />
        </mxCell>
        <mxCell id="2SYqB3RUra1mMBqpHuPi-8" value="&lt;span style=&quot;font-size: 20px;&quot;&gt;&lt;b&gt;Notice&lt;/b&gt;&lt;/span&gt;" style="text;html=1;align=left;verticalAlign=middle;resizable=0;points=[];autosize=1;strokeColor=none;fillColor=none;" vertex="1" parent="1">
          <mxGeometry x="610" y="120" width="80" height="40" as="geometry" />
        </mxCell>
        <mxCell id="2SYqB3RUra1mMBqpHuPi-9" value="&lt;ul style=&quot;font-size: 16px;&quot;&gt;&lt;li&gt;&lt;span style=&quot;background-color: initial;&quot;&gt;user_id (FK)&lt;/span&gt;&lt;/li&gt;&lt;li&gt;&lt;span style=&quot;background-color: initial;&quot;&gt;notice_id (FK)&lt;/span&gt;&lt;br&gt;&lt;/li&gt;&lt;li&gt;reaction&amp;nbsp;&lt;/li&gt;&lt;/ul&gt;" style="rounded=1;whiteSpace=wrap;html=1;align=left;" vertex="1" parent="1">
          <mxGeometry x="590" y="440" width="140" height="120" as="geometry" />
        </mxCell>
        <mxCell id="2SYqB3RUra1mMBqpHuPi-10" value="&lt;span style=&quot;font-size: 20px;&quot;&gt;&lt;b&gt;Reaction&lt;/b&gt;&lt;/span&gt;" style="text;html=1;align=left;verticalAlign=middle;resizable=0;points=[];autosize=1;strokeColor=none;fillColor=none;" vertex="1" parent="1">
          <mxGeometry x="620" y="570" width="110" height="40" as="geometry" />
        </mxCell>
        <mxCell id="IHKW28fJprt5DtpidUdv-1" value="&lt;ul style=&quot;font-size: 16px;&quot;&gt;&lt;li&gt;user_id (FK)&lt;/li&gt;&lt;li&gt;phone_number&lt;/li&gt;&lt;/ul&gt;" style="rounded=1;whiteSpace=wrap;html=1;align=left;" vertex="1" parent="1">
          <mxGeometry x="50" y="440" width="140" height="120" as="geometry" />
        </mxCell>
        <mxCell id="IHKW28fJprt5DtpidUdv-2" value="&lt;b&gt;&lt;font style=&quot;font-size: 20px;&quot;&gt;PhoneNumber&lt;/font&gt;&lt;/b&gt;" style="text;html=1;align=left;verticalAlign=middle;resizable=0;points=[];autosize=1;strokeColor=none;fillColor=none;" vertex="1" parent="1">
          <mxGeometry x="60" y="570" width="160" height="40" as="geometry" />
        </mxCell>
        <mxCell id="IHKW28fJprt5DtpidUdv-6" value="Unique Constraint" style="text;html=1;align=left;verticalAlign=middle;resizable=0;points=[];autosize=1;strokeColor=none;fillColor=none;" vertex="1" parent="1">
          <mxGeometry x="135" y="370" width="120" height="30" as="geometry" />
        </mxCell>
        <mxCell id="IHKW28fJprt5DtpidUdv-19" value="unique constraint on user and notice" style="text;html=1;align=left;verticalAlign=middle;resizable=0;points=[];autosize=1;strokeColor=none;fillColor=none;" vertex="1" parent="1">
          <mxGeometry x="570" y="378" width="220" height="30" as="geometry" />
        </mxCell>
        <mxCell id="2SYqB3RUra1mMBqpHuPi-7" value="&lt;b&gt;&lt;font style=&quot;font-size: 20px;&quot;&gt;Street&lt;/font&gt;&lt;/b&gt;" style="text;html=1;align=left;verticalAlign=middle;resizable=0;points=[];autosize=1;strokeColor=none;fillColor=none;" vertex="1" parent="1">
          <mxGeometry x="90" y="120" width="80" height="40" as="geometry" />
        </mxCell>
        <mxCell id="IHKW28fJprt5DtpidUdv-33" value="1:n" style="text;html=1;align=left;verticalAlign=middle;resizable=0;points=[];autosize=1;strokeColor=none;fillColor=none;" vertex="1" parent="1">
          <mxGeometry x="520" y="318" width="40" height="30" as="geometry" />
        </mxCell>
        <mxCell id="IHKW28fJprt5DtpidUdv-35" value="1:n" style="text;html=1;align=left;verticalAlign=middle;resizable=0;points=[];autosize=1;strokeColor=none;fillColor=none;" vertex="1" parent="1">
          <mxGeometry x="520" y="348" width="40" height="30" as="geometry" />
        </mxCell>
        <mxCell id="IHKW28fJprt5DtpidUdv-36" value="n:1" style="text;html=1;align=left;verticalAlign=middle;resizable=0;points=[];autosize=1;strokeColor=none;fillColor=none;" vertex="1" parent="1">
          <mxGeometry x="200" y="318" width="40" height="30" as="geometry" />
        </mxCell>
        <mxCell id="IHKW28fJprt5DtpidUdv-37" value="1:n" style="text;html=1;align=left;verticalAlign=middle;resizable=0;points=[];autosize=1;strokeColor=none;fillColor=none;" vertex="1" parent="1">
          <mxGeometry x="200" y="348" width="40" height="30" as="geometry" />
        </mxCell>
        <mxCell id="IHKW28fJprt5DtpidUdv-38" value="m:n" style="text;html=1;align=left;verticalAlign=middle;resizable=0;points=[];autosize=1;strokeColor=none;fillColor=none;" vertex="1" parent="1">
          <mxGeometry x="740" y="308" width="40" height="30" as="geometry" />
        </mxCell>
      </root>
    </mxGraphModel>
  </diagram>
</mxfile>
